# xmcd
#
# Track frame offsets:
#	225
#	12846
#	22135
#	35437
#	48708
#	63418
#	82602
#	98552
#	123992
#	138824
#	162493
#	181032
#	208870
#	234988
#	254778
#	278657
#
# Disc length: 4183 seconds
#
# Revision: 0
# Processed by: cddbd v1.5.2PL0 Copyright (c) Steve Scherf et al.
# Submitted via: audiograbber 1.83.01
#
DISCID=d4105410
DTITLE=ZZZ - Revolutions  The Very Best Of Steve Winwood
DYEAR=2010
DGENRE=Rock
TTITLE0=Spencer Davis Group - Keep On Running
TTITLE1=Spencer Davis Group - Somebody Help Me
TTITLE2=Spencer Davis Group - Gimme Some Lovin'
TTITLE3=Spencer Davis Group - I'm A Man
TTITLE4=Traffic - Forty Thousand Headmen
TTITLE5=Traffic - Paper Sun
TTITLE6=Traffic - No Face, No Name, No Number
TTITLE7=Traffic - Dear Mr. Fantasy
TTITLE8=Steve Winwood - Can't Find My Way Home
TTITLE9=Steve Winwood - While You See A Chance
TTITLE10=Steve Winwood - Valerie
TTITLE11=Steve Winwood - Spanish Dancer 2010
TTITLE12=Steve Winwood - Higher Love
TTITLE13=Steve Winwood - Back In The High Life Again
TTITLE14=Steve Winwood - Roll With It
TTITLE15=Steve Winwood - Dirty City (Feat. Eric Clapton)
EXTD=
EXTT0=
EXTT1=
EXTT2=
EXTT3=
EXTT4=
EXTT5=
EXTT6=
EXTT7=
EXTT8=
EXTT9=
EXTT10=
EXTT11=
EXTT12=
EXTT13=
EXTT14=
EXTT15=
PLAYORDER=
